<?xml version="1.0" encoding="UTF-8"?>
<svg width="43px" height="55px" viewBox="0 0 43 55" version="1.1" xmlns="http://www.w3.org/2000/svg" xmlns:xlink="http://www.w3.org/1999/xlink">
    <!-- Generator: Sketch 48.1 (47250) - http://www.bohemiancoding.com/sketch -->
    <title>Group 10</title>
    <desc>Created with Sketch.</desc>
    <defs></defs>
    <g id="Assets" stroke="none" stroke-width="1" fill="none" fill-rule="evenodd" transform="translate(-91.000000, -1302.000000)">
        <g id="Group-10" transform="translate(88.000000, 1302.000000)">
            <path d="M0,0 L50,0 L50,54.7619048 L0,54.7619048 L0,0 Z M0,0 L50,0 L50,54.7619048 L0,54.7619048 L0,0 Z M0,0 L50,0 L50,54.7619048 L0,54.7619048 L0,0 Z" id="Shape"></path>
            <path d="M41.0714286,0 L7.73809524,0 L7.73809524,4.56349206 L41.0714286,4.56349206 L41.0714286,0 L41.0714286,0 Z M7.73809524,54.7619048 L41.0714286,54.7619048 L41.0714286,50.1984127 L7.73809524,50.1984127 L7.73809524,54.7619048 L7.73809524,54.7619048 Z M41.0714286,9.12698413 L7.73809524,9.12698413 C5.44642857,9.12698413 3.57142857,11.1805556 3.57142857,13.6904762 L3.57142857,41.0714286 C3.57142857,43.5813492 5.44642857,45.6349206 7.73809524,45.6349206 L41.0714286,45.6349206 C43.3630952,45.6349206 45.2380952,43.5813492 45.2380952,41.0714286 L45.2380952,13.6904762 C45.2380952,11.1805556 43.3630952,9.12698413 41.0714286,9.12698413 L41.0714286,9.12698413 Z M24.4047619,15.4017857 C26.9880952,15.4017857 29.0922619,17.7063492 29.0922619,20.5357143 C29.0922619,23.3650794 26.9880952,25.6696429 24.4047619,25.6696429 C21.8214286,25.6696429 19.7172619,23.3650794 19.7172619,20.5357143 C19.7172619,17.7063492 21.8214286,15.4017857 24.4047619,15.4017857 L24.4047619,15.4017857 Z M34.8214286,38.7896825 L13.9880952,38.7896825 L13.9880952,35.3670635 C13.9880952,31.5565476 20.9255952,29.6626984 24.4047619,29.6626984 C27.8839286,29.6626984 34.8214286,31.5565476 34.8214286,35.3670635 L34.8214286,38.7896825 L34.8214286,38.7896825 Z" id="Shape" fill="#2196F3"></path>
        </g>
    </g>
</svg>