<?xml version="1.0" encoding="UTF-8"?>
<svg width="41px" height="41px" viewBox="0 0 41 41" version="1.1" xmlns="http://www.w3.org/2000/svg" xmlns:xlink="http://www.w3.org/1999/xlink">
    <!-- Generator: Sketch 48.1 (47250) - http://www.bohemiancoding.com/sketch -->
    <title>Group 6</title>
    <desc>Created with Sketch.</desc>
    <defs></defs>
    <g id="Assets" stroke="none" stroke-width="1" fill="none" fill-rule="evenodd" transform="translate(-92.000000, -1215.000000)">
        <g id="Group-6" transform="translate(85.000000, 1208.000000)">
            <path d="M46.8611111,7 L46.4966667,7.06833333 L34.3333333,11.7833333 L20.6666667,7 L7.82,11.3277778 C7.34166667,11.4872222 7,11.8972222 7,12.4211111 L7,46.8611111 C7,47.4988889 7.50111111,48 8.13888889,48 L8.50333333,47.9316667 L20.6666667,43.2166667 L34.3333333,48 L47.18,43.6722222 C47.6583333,43.5127778 48,43.1027778 48,42.5788889 L48,8.13888889 C48,7.50111111 47.4988889,7 46.8611111,7 L46.8611111,7 Z M34.3333333,43.4444444 L20.6666667,38.6383333 L20.6666667,11.5555556 L34.3333333,16.3616667 L34.3333333,43.4444444 L34.3333333,43.4444444 Z" id="Shape" fill="#2196F3"></path>
            <polygon id="Shape" points="0 0 55 0 55 55 0 55"></polygon>
        </g>
    </g>
</svg>