<?xml version="1.0" encoding="UTF-8"?>
<svg width="56px" height="47px" viewBox="0 0 56 47" version="1.1" xmlns="http://www.w3.org/2000/svg" xmlns:xlink="http://www.w3.org/1999/xlink">
    <!-- Generator: Sketch 48.1 (47250) - http://www.bohemiancoding.com/sketch -->
    <title>Page 1</title>
    <desc>Created with Sketch.</desc>
    <defs></defs>
    <g id="Assets" stroke="none" stroke-width="1" fill="none" fill-rule="evenodd" transform="translate(-603.000000, -1910.000000)">
        <g id="Page-1" transform="translate(603.000000, 1910.000000)" fill="#2196F3">
            <path d="M46.6666667,0 L4.66666667,0 C2.07666667,0 0,2.0915 0,4.7 L0,32.9 C0,35.485 2.07666667,37.6 4.66666667,37.6 L21,37.6 L21,42.3 L16.3333333,42.3 L16.3333333,47 L35,47 L35,42.3 L30.3333333,42.3 L30.3333333,37.6 L35,37.6 L35,32.9 L4.66666667,32.9 L4.66666667,4.7 L46.6666667,4.7 L46.6666667,16.45 L51.3333333,16.45 L51.3333333,4.7 C51.3333333,2.0915 49.2333333,0 46.6666667,0 Z M42,42.3 L53.6666667,42.3 L53.6666667,25.85 L42,25.85 L42,42.3 Z M53.6666667,21.1735 L42,21.15 C40.7166667,21.15 39.6666667,22.2075 39.6666667,23.5 L39.6666667,44.65 C39.6666667,45.9425 40.7166667,47 42,47 L53.6666667,47 C54.95,47 56,45.9425 56,44.65 L56,23.5 C56,22.2075 54.95,21.1735 53.6666667,21.1735 Z" id="Fill-1"></path>
            <polygon id="Fill-3" points="27.8478886 8.03947368 19.0769231 20.2643998 24.4361866 20.2643998 21.7553983 29.0657895 30.7692308 16.8408634 25.4099673 16.8408634"></polygon>
        </g>
    </g>
</svg>