<?xml version="1.0" encoding="UTF-8"?>
<svg width="50px" height="50px" viewBox="0 0 50 50" version="1.1" xmlns="http://www.w3.org/2000/svg" xmlns:xlink="http://www.w3.org/1999/xlink">
    <!-- Generator: Sketch 48.1 (47250) - http://www.bohemiancoding.com/sketch -->
    <title>Page 1</title>
    <desc>Created with Sketch.</desc>
    <defs></defs>
    <g id="Assets" stroke="none" stroke-width="1" fill="none" fill-rule="evenodd" transform="translate(-603.000000, -1823.000000)">
        <path d="M612.756098,1837.63415 L642.634146,1837.63415 L642.634146,1832.7561 L612.756098,1832.7561 L612.756098,1837.63415 Z M612.756098,1852.87805 L632.878049,1852.87805 L632.878049,1848 L612.756098,1848 L612.756098,1852.87805 Z M612.756098,1845.56098 L642.634146,1845.56098 L642.634146,1840.68293 L612.756098,1840.68293 L612.756098,1845.56098 Z M648,1823 L608,1823 C605.25,1823 603.025,1825.25 603.025,1828 L603,1873 L613,1863 L648,1863 C650.75,1863 653,1860.75 653,1858 L653,1828 C653,1825.25 650.75,1823 648,1823 Z" id="Page-1" fill="#2196F3"></path>
    </g>
</svg>